<?xml version="1.0" encoding="utf-8"?>
<!-- Generator: Adobe Illustrator 17.1.0, SVG Export Plug-In . SVG Version: 6.00 Build 0)  -->
<!DOCTYPE svg PUBLIC "-//W3C//DTD SVG 1.1//EN" "http://www.w3.org/Graphics/SVG/1.1/DTD/svg11.dtd">
<svg version="1.1" id="Layer_1" xmlns="http://www.w3.org/2000/svg" xmlns:xlink="http://www.w3.org/1999/xlink" x="0px" y="0px"
	 viewBox="0 0 900 900" enable-background="new 0 0 900 900" xml:space="preserve">
<path fill="#442131" d="M281.3,703.1c-46.6,0-83.9,37.8-83.9,84.4s37.3,84.4,83.9,84.4s84.4-37.8,84.4-84.4S327.9,703.1,281.3,703.1
	z M28.2,28.2v84.4h84.4l151.6,320l-56.9,103.3c-6.5,12.2-10.3,25.9-10.3,40.7c0,46.6,37.8,84.4,84.4,84.4h506.2v-84.4H299.2
	c-5.9,0-10.5-4.6-10.5-10.5c0-1.9,0.4-3.6,1.3-5.1l37.8-68.8h314.3c31.6,0,59.3-17.5,73.8-43.4L866.6,175c3.4-5.9,5.3-12.9,5.3-20.2
	c0-23.4-19-42.2-42.2-42.2H206l-40.1-84.4C165.9,28.2,28.2,28.2,28.2,28.2z M703.1,703.1c-46.6,0-83.9,37.8-83.9,84.4
	s37.3,84.4,83.9,84.4c46.6,0,84.4-37.8,84.4-84.4S749.7,703.1,703.1,703.1z"/>
</svg>
