<?xml version="1.0" encoding="utf-8"?>
<!-- Generator: Adobe Illustrator 17.1.0, SVG Export Plug-In . SVG Version: 6.00 Build 0)  -->
<!DOCTYPE svg PUBLIC "-//W3C//DTD SVG 1.1//EN" "http://www.w3.org/Graphics/SVG/1.1/DTD/svg11.dtd">
<svg version="1.1" id="Capa_1" xmlns="http://www.w3.org/2000/svg" xmlns:xlink="http://www.w3.org/1999/xlink" x="0px" y="0px"
	 viewBox="0 0 1280 800" enable-background="new 0 0 1280 800" xml:space="preserve">
<g>
	<g>
		<path fill="#EEEEEE" d="M1004.8,281.7c-21.6-23.4-52.4-36.3-86.6-36.3h-82.3v-44.5c0-10.8-8.8-19.6-19.6-19.6H424.1
			c-10.8,0-19.6,8.8-19.6,19.6v68.4h-76.4c-10.8,0-19.6,8.8-19.6,19.6c0,10.8,8.8,19.6,19.6,19.6h95.6c0.2,0,0.3,0,0.5,0
			c0,0,0,0,0.2,0c10.8,0,19.6-8.8,19.6-19.6v-68.4h352.9V265v263.3H611.8c-0.8,0-1.6,0-2.5,0.2c-9.8-24.2-33.6-41.4-61.2-41.4
			c-27.8,0-51.6,17.3-61.2,41.7c-1.5-0.3-2.8-0.5-4.3-0.5h-38.8v-68.6c0-10.8-8.8-19.6-19.6-19.6c-0.3,0-0.7,0-1,0s-0.5,0-0.8,0
			h-94.4c-10.8,0-19.6,8.8-19.6,19.6s8.8,19.6,19.6,19.6h76.4v68.4c0,10.8,8.8,19.6,19.6,19.6h58.4c0.5,0,0.8,0,1.3,0
			c6.5,29.5,32.9,51.4,64.3,51.4s57.6-21.9,64.3-51.4h203.9h31.4c6.7,29.3,32.9,51.4,64.3,51.4s57.6-21.9,64.3-51.4h43.9
			c10.8,0,19.6-8.8,19.6-19.6V384.6C1040,342.2,1027.7,306.5,1004.8,281.7z M548.2,579.7c-14.7,0-26.7-11.9-26.7-26.7
			c0-14.7,11.9-26.7,26.7-26.7c14.7,0,26.7,11.9,26.7,26.7C574.9,567.8,562.9,579.7,548.2,579.7z M912.2,579.7
			c-14.7,0-26.7-11.9-26.7-26.7c0-14.7,11.9-26.7,26.7-26.7c14.7,0,26.7,11.9,26.7,26.7C938.7,567.8,926.7,579.7,912.2,579.7z
			 M1000.7,528.3h-27.5c-9.8-24.1-33.6-41.2-61-41.2s-51.2,17-61,41.2h-15.1V284.6h82.3c51.6,0,82.3,37.5,82.3,100.2V528.3z"/>
		<path fill="#EEEEEE" d="M577.3,411.1c-7.7,7.7-7.7,20.1,0,27.8c3.8,3.8,8.8,5.7,13.9,5.7s10-2,13.9-5.7l50.6-50.6l0.2-0.2
			c0.3-0.5,0.8-0.8,1.1-1.3c0.2-0.3,0.3-0.5,0.5-0.8c0.2-0.3,0.3-0.5,0.7-0.8c0.2-0.3,0.3-0.7,0.5-1s0.3-0.5,0.5-0.8
			c0.2-0.3,0.3-0.7,0.5-1c0.2-0.3,0.3-0.5,0.3-0.8c0.2-0.3,0.2-0.7,0.3-1c0.2-0.3,0.2-0.7,0.3-0.8c0.2-0.3,0.2-0.7,0.2-1
			c0-0.3,0.2-0.7,0.2-1c0-0.3,0.2-0.7,0.2-1.1c0-0.3,0.2-0.5,0.2-0.8c0.2-1.3,0.2-2.6,0-3.9c0-0.3,0-0.5-0.2-0.8
			c0-0.3-0.2-0.7-0.2-1.1c0-0.3-0.2-0.7-0.2-1s-0.2-0.7-0.2-1c-0.2-0.3-0.2-0.7-0.3-0.8c-0.2-0.3-0.2-0.7-0.3-1
			c-0.2-0.3-0.3-0.5-0.3-0.8c-0.2-0.3-0.3-0.7-0.5-1c-0.2-0.3-0.3-0.5-0.5-0.8s-0.3-0.7-0.5-1c-0.2-0.3-0.3-0.5-0.7-0.8
			c-0.2-0.3-0.3-0.5-0.5-0.8c-0.3-0.5-0.8-0.8-1.1-1.3l-0.2-0.2l-48.1-48.1c-7.7-7.7-20.1-7.7-27.8,0c-7.7,7.7-7.7,20.1,0,27.8
			l14.6,14.6H259.6c-10.8,0-19.6,8.8-19.6,19.6s8.8,19.6,19.6,19.6h334.5L577.3,411.1z"/>
	</g>
</g>
</svg>
