<?xml version="1.0" encoding="utf-8"?>
<!-- Generator: Adobe Illustrator 17.1.0, SVG Export Plug-In . SVG Version: 6.00 Build 0)  -->
<!DOCTYPE svg PUBLIC "-//W3C//DTD SVG 1.1//EN" "http://www.w3.org/Graphics/SVG/1.1/DTD/svg11.dtd">
<svg version="1.1" id="Layer_1" xmlns="http://www.w3.org/2000/svg" xmlns:xlink="http://www.w3.org/1999/xlink" x="0px" y="0px"
	 viewBox="0 0 1280 800" enable-background="new 0 0 1280 800" xml:space="preserve">
<g>
	<g>
		<g>
			<path fill="#EEEEEE" d="M800.4,270.2c-20-20.5-46.8-31.7-75.4-31.7c-28.2,0-54.6,11-74.5,30.9l-10.3,10.3l-10.3-10.3
				c-19.9-19.9-46.4-30.9-74.5-30.9c-28.2,0-54.6,11-74.5,30.9C461,289.3,450,315.7,450,343.9s11,54.6,30.9,74.5l131.7,131.7
				c7.6,7.6,17.6,11.4,27.6,11.4c10,0,20-3.8,27.6-11.4l130.9-130.9C839.8,378.1,840.5,311.3,800.4,270.2z M784.9,405.5L654,536.3
				c-7.6,7.6-20,7.6-27.6,0L494.7,404.6c-16.2-16.2-25.2-37.8-25.2-60.7c0-22.9,8.9-44.5,25.2-60.7c16.2-16.2,37.8-25.2,60.7-25.2
				c22.9,0,44.5,8.9,60.7,25.2l10.3,10.3l-15.8,15.8c-3.8,3.8-3.8,10,0,13.8c1.9,1.9,4.4,2.9,6.9,2.9c2.5,0,5-1,6.9-2.9l39.8-39.9
				c16.2-16.2,37.8-25.2,60.7-25.2c23.3,0,45.1,9.2,61.4,25.9C819.1,317.3,818.4,371.9,784.9,405.5z"/>
		</g>
	</g>
	<g>
		<g>
			<path fill="#EEEEEE" d="M796.1,339.4c-1.1-17.4-8.4-33.7-20.7-45.9c-8.7-8.7-19.5-15-31.2-18.3c-5.2-1.4-10.6,1.6-12,6.8
				c-1.4,5.2,1.6,10.6,6.8,12c8.5,2.4,16.3,6.9,22.6,13.3c8.9,8.9,14.2,20.8,15,33.4c0.3,5.2,4.6,9.2,9.7,9.2c0.2,0,0.4,0,0.6,0
				C792.3,349.4,796.4,344.8,796.1,339.4z"/>
		</g>
	</g>
</g>
</svg>
