<?xml version="1.0" encoding="utf-8"?>
<!-- Generator: Adobe Illustrator 17.1.0, SVG Export Plug-In . SVG Version: 6.00 Build 0)  -->
<!DOCTYPE svg PUBLIC "-//W3C//DTD SVG 1.1//EN" "http://www.w3.org/Graphics/SVG/1.1/DTD/svg11.dtd">
<svg version="1.1" id="Capa_1" xmlns="http://www.w3.org/2000/svg" xmlns:xlink="http://www.w3.org/1999/xlink" x="0px" y="0px"
	 viewBox="0 0 1280 800" enable-background="new 0 0 1280 800" xml:space="preserve">
<g>
	<g>
		<path fill="#EEEEEE" d="M694.2,470.2v-6.6c1.9-1.5,3.7-3.2,5.4-4.9c13.8-15.2,22.5-34.3,24.8-54.7c12.4-1.9,23.6-8.5,31.2-18.5
			c10.4-14.7,11.3-35.9,2.7-62.5c-0.5-1.5-1.5-2.8-2.9-3.7l-3.9-2.7c0.6-24-7.7-47.3-23.3-65.5c-19.3-21.8-49-32.7-88.2-32.9
			c-39.2,0-68.9,11.1-88.2,32.6c-15.6,18.2-23.8,41.6-23.3,65.5l-3.9,2.7c-1.3,0.9-2.4,2.2-2.9,3.7c-8.7,26.7-7.8,47.7,2.7,62.5
			c7.6,10.1,18.7,16.8,31.2,18.7c2.4,20.4,11.1,39.6,24.9,54.8c1.7,1.7,3.5,3.3,5.4,4.9v6.6c-27.5,5.3-137.3,31.1-135.4,104.3
			c0,4,3.2,7.2,7.2,7.2h364.9c4,0,7.2-3.2,7.2-7.2C831.5,501.3,721.7,475.6,694.2,470.2z M551.2,388c-6.1-2-11.4-5.9-15.2-11.1
			l0.4,0.1c-7.2-10.5-7.8-26.3-1.4-47.3l5.2-3.5c2.2-1.5,3.4-4,3.2-6.7c-1.2-21.5,5.8-42.6,19.5-59.1c16.2-18.4,42.3-27.6,77.2-27.7
			c34.9-0.1,60.9,9.3,77.5,27.7c13.8,16.5,20.7,37.6,19.5,59.1c-0.3,2.6,1,5.2,3.2,6.7l5.2,3.5c6.4,20.9,6,36.8-1.4,47.3
			c-3.8,5.2-9.2,9.1-15.3,11.1c8.7-9.9,12.9-22.8,11.7-35.9c-1.3-7.9-5.4-15-11.6-20.1c-3.1-71.8-53.4-79.8-75.1-79.8
			c-4.6,0-9.2,0.3-13.7,1c-4.5-0.7-9.1-1-13.7-1c-21.5,0-71.8,7.9-75.1,79.8c-6.2,5.1-10.3,12.2-11.7,20
			C538.3,365.1,542.5,378.1,551.2,388z M714.5,329.1c-30.1,1.7-60.1-5.8-85.8-21.5c-2.9-2-6.9-1.6-9.3,0.9
			c-14.4,15.4-40.6,19-53.2,19.8c3.9-50.8,34.6-61.8,60.4-61.8c4.1,0,8.2,0.3,12.3,1c0.9,0.2,1.9,0.2,2.9,0c4.1-0.7,8.2-1,12.3-1
			c25.6,0,56.5,11.3,60.1,62.5L714.5,329.1z M568.7,389.3l0.3,0.1c0-1.8-0.6-3.5-1.8-4.8c-9.8-11.3-14.4-21.5-13.1-30
			c0.6-4.7,2.9-9,6.5-12.1c9.5,0,43.1-1.8,64.6-20.4c24.3,13.9,51.7,21.4,79.7,21.5c4.8,0,9.7,0,14.8-0.8c3.5,3,5.8,7.2,6.5,11.8
			c1.2,8.3-3.3,18.7-13.1,30c-1.2,1.3-1.8,3-1.8,4.8c0,0,0,1.4,0,3.7l-41.8,22.4c-8.3-7.9-21.4-7.5-29.2,0.8s-7.5,21.4,0.8,29.2
			c8.3,7.9,21.4,7.5,29.2-0.8c3.6-3.8,5.7-8.9,5.7-14.2c0-0.6,0-1.3,0-1.9l33-17.7c-2.8,14.2-9.5,27.3-19.2,37.9
			c-12.7,12.3-30,18.7-47.6,17.8h-3.6c-17.6,0.9-34.8-5.5-47.5-17.7C568.2,426.3,568.7,389.7,568.7,389.3z M661.5,430.5
			c0,3.5-2.9,6.4-6.4,6.4c-3.5,0-6.4-2.9-6.4-6.4s2.9-6.4,6.4-6.4C658.6,424.2,661.5,427,661.5,430.5z M632.8,566.9H464.9
			c5.7-53.9,93.3-76.5,120.8-82.3v12.9c0,16.3,19.8,28.7,47.1,30.8V566.9z M600,497.5v-0.2v-24.6c11.9,5.5,25,8.3,38.1,8h3.6
			c13.2,0.2,26.2-2.5,38.1-8v24.8c0,6.8-15.6,16.7-39.9,16.7C615.6,514.2,600,504.3,600,497.5z M647.1,567.2v-38.9
			c27.3-1.9,47.1-14.4,47.1-30.8v-12.6c27.6,5.7,114.9,28.3,120.8,82.3L647.1,567.2L647.1,567.2z"/>
	</g>
</g>
</svg>
